<?xml version="1.0" encoding="utf-8"?>
<!-- Generator: Adobe Illustrator 12.0.0, SVG Export Plug-In . SVG Version: 6.00 Build 51448)  -->
<!DOCTYPE svg PUBLIC "-//W3C//DTD SVG 1.1//EN" "http://www.w3.org/Graphics/SVG/1.1/DTD/svg11.dtd" [
	<!ENTITY ns_svg "http://www.w3.org/2000/svg">
	<!ENTITY ns_xlink "http://www.w3.org/1999/xlink">
]>
<svg  version="1.1" id="Layer_1" xmlns="&ns_svg;" xmlns:xlink="&ns_xlink;" width="135.378" height="135.349"
	 viewBox="0 0 135.378 135.349" overflow="visible" enable-background="new 0 0 135.378 135.349" xml:space="preserve">
<rect x="1.078" y="0.87" fill-rule="evenodd" clip-rule="evenodd" fill="#FFFFFF" width="132.5" height="131.5"/>
<g>
	<g>
		<g>
			<path fill="#221E1F" d="M0.037,0L0,135.349c45.126,0,90.251,0,135.378,0c0-45.116,0-90.232,0-135.349C90.503,0,44.912,0,0.037,0z
				 M126.353,75.946c-2.742,29.421-29.807,56.69-67.689,51.884c-24.023-3.049-46.923-24.835-49.639-51.132
				C5.482,42.386,28.133,15.573,58.664,11.279C96.74,5.924,130.277,33.831,126.353,75.946z"/>
		</g>
	</g>
</g>
<g>
	<g>
		<g>
			<path fill="#221E1F" d="M107.178,48.476c-0.548-1.814-7.926-1.038-10.033-1.038c-4.251,0-7.527,0-11.244,0
				c1.881-4.126,5.153-11.01,7.438-15.914c0.689-1.479,6.331-11.951,5.826-13.584c-0.298-0.961-3.79-1.47-4.268-0.691
				c-3.964,7.05-10.662,22.989-14.477,30.189c-13.48,0-25.361,0-39.151,0c-2.218,0-12.063-0.831-12.628,1.038
				c-0.546,1.812,2.736,4.371,3.979,5.71c9.645,10.38,18.706,20.039,28.37,30.099c1.446,1.507,4.165,3.885,4.498,5.362v27.196
				c-1.009,7.313-7.813,8.598-15.05,9.65c-2.582,0.376-6.393,1.986-6.574,5.556c16.088,0,32.176,0,48.264,0
				c-0.281-3.669-4.279-5.105-7.266-5.556c-7.797-1.176-14.358-1.882-14.531-9.688c-0.17-7.685,0.483-18.98,0-27.33
				c10.088-11.354,22.08-23.603,32.695-35.289C103.974,53.141,107.787,50.495,107.178,48.476z M99.914,52.628
				c-0.5,0.51-1.101,1.052-1.73,1.729c-0.787,0.847-2.242,3.115-3.459,3.46c-1.465,0.415-4.271,0-6.748,0
				c-13.207,0-26.719,0-40.133,0c-2.438,0-5.076,0.382-6.573,0c-1.94-0.496-5.348-5.883-6.746-6.92c22.142,0,44.284,0,66.427,0
				C101.296,51.579,100.453,52.078,99.914,52.628z"/>
		</g>
	</g>
</g>
</svg>
