<?xml version="1.0" encoding="utf-8"?>
<!-- Generator: Adobe Illustrator 12.0.0, SVG Export Plug-In . SVG Version: 6.00 Build 51448)  -->
<!DOCTYPE svg PUBLIC "-//W3C//DTD SVG 1.1//EN" "http://www.w3.org/Graphics/SVG/1.1/DTD/svg11.dtd" [
	<!ENTITY ns_svg "http://www.w3.org/2000/svg">
	<!ENTITY ns_xlink "http://www.w3.org/1999/xlink">
]>
<svg  version="1.1" id="Layer_1" xmlns="&ns_svg;" xmlns:xlink="&ns_xlink;" width="135.378" height="135.35"
	 viewBox="0 0 135.378 135.35" overflow="visible" enable-background="new 0 0 135.378 135.35" xml:space="preserve">
<g>
	<path fill="#FFFFFF" d="M63.842,0.036c2.554,0,5.105,0,7.66,0c10.063,1.373,19.723,3.163,26.555,7.847
		c-4.854,12.64-10.469,24.502-16.342,36.097c-19.067,0.347-39.486-0.693-57.703,0.522c0.473,5.435,5.848,8.869,9.193,12.556
		c10.471,11.546,22.001,23.803,32.17,36.096c-0.874,11.839,3.254,27.863-1.021,36.097c-2.693,5.187-8.286,4.258-14.297,6.279
		c-0.852,0-1.705,0-2.554,0C21.08,125.803,3.866,106.645,0.011,73.8c0-2.965,0-5.931,0-8.895
		C5.179,26.777,26.368,5.063,63.842,0.036z"/>
	<path fill="#FFFFFF" d="M135.333,64.906c0,2.964,0,5.93,0,8.895c-3.748,32.78-21.084,51.641-46.979,61.73c-0.853,0-1.702,0-2.556,0
		c-5.436-1.375-11.564-1.095-13.274-5.233c-3.349-8.098-0.735-23.189-2.043-37.144c6.788-8.242,13.812-16.152,20.937-24.063
		c7.055-7.832,15.5-15.667,21.013-25.029c-6.192-0.855-16.339,0.534-24.075-0.083c4.706-11.396,9.98-22.211,15.318-32.959
		C121.093,21.948,132.399,39.137,135.333,64.906z"/>
	<path fill="#FFFFFF" d="M30.65,47.643c24.852,0,49.704,0,74.553,0c-0.979,1.88-3.754,7.272-7.658,8.37
		c-6.633,1.862-19.071,2.569-29.619,2.569c-11.178,0-22.658-0.978-29.105-2.569C34.534,54.954,32.02,50.259,30.65,47.643z"/>
</g>
</svg>
