<?xml version="1.0" encoding="UTF-8"?>
<svg width="200pt" height="200pt" version="1.1" viewBox="200 90 300 400" xmlns="http://www.w3.org/2000/svg" xmlns:xlink="http://www.w3.org/1999/xlink">
 <g>
  <path d="m384.16 269.36h-152.88l82.32-82.32c4.4805-4.4805 4.4805-11.199 0-15.68-4.4805-4.4805-11.199-4.4805-15.68 0l-101.92 101.36-1.6797 1.6797s0 0.55859-0.55859 0.55859c0 0.55859-0.55859 1.1211-0.55859 1.1211v0.55859c0 0.55859-0.55859 1.1211-0.55859 1.1211v4.4844c0 0.55859 0 1.1211 0.55859 1.6797v0.55859c0 0.55859 0.55859 1.1211 0.55859 1.6797v0.55859c0.55859 0.55859 1.1211 1.1211 1.6797 1.6797l101.36 101.36c2.2383 2.2383 5.0391 3.3594 7.8398 3.3594s5.6016-1.1211 7.8398-3.3594c4.4805-4.4805 4.4805-11.199 0-15.68l-81.199-82.32h152.88c56 0 101.36 45.359 101.36 101.36 0 6.1602 5.0391 11.199 11.199 11.199s11.199-5.0391 11.199-11.199c0-67.762-55.441-123.76-123.76-123.76z"/>
 </g>
</svg>
