<?xml version="1.0" encoding="UTF-8"?>
<svg width="200pt" height="200pt" version="1.1" viewBox="235 167 230 230" xmlns="http://www.w3.org/2000/svg" xmlns:xlink="http://www.w3.org/1999/xlink">
 <g>
  <path d="m345.46 344.48c2.5039-1.8281 6.5703-1.8242 9.0703 0l53.516 39.059c9.9922 7.293 14.98 3.7031 11.121-8.082l-20.609-62.965c-0.96484-2.9492 0.29688-6.8125 2.8047-8.625l53.684-38.828c10.023-7.25 8.1484-13.102-4.25-13.074l-66.254 0.14453c-3.0977 0.003906-6.3867-2.3906-7.3359-5.332l-20.336-63.055c-3.7969-11.773-9.9453-11.801-13.75 0l-20.336 63.055c-0.95312 2.9492-4.2461 5.3359-7.3359 5.332l-66.254-0.14453c-12.371-0.027344-14.297 5.8086-4.25 13.074l53.684 38.828c2.5156 1.8164 3.7656 5.6836 2.8047 8.625l-20.609 62.965c-3.8516 11.758 1.1055 15.391 11.121 8.082z" fill="#f7d47b"/>
 </g>
</svg>