<?xml version="1.0" encoding="UTF-8"?>
<svg width="200pt" height="200pt" version="1.1" viewBox="235 167 230 230" xmlns="http://www.w3.org/2000/svg" xmlns:xlink="http://www.w3.org/1999/xlink">
 <g>
  <path d="m347.12 346.74-53.516 39.059c-12.207 8.9102-20.133 3.1328-15.438-11.215l20.613-62.965c0.58203-1.7852-0.26172-4.3867-1.7852-5.4883l-53.684-38.824c-12.246-8.8555-9.1992-18.18 5.8984-18.145l66.25 0.14453c1.8789 0.003906 4.0898-1.6016 4.668-3.3906l20.336-63.055c4.6367-14.383 14.445-14.367 19.078 0l20.336 63.055c0.57812 1.7852 2.7852 3.3945 4.668 3.3906l66.25-0.14453c15.113-0.035156 18.129 9.2969 5.8984 18.145l-53.684 38.824c-1.5234 1.1016-2.3672 3.6992-1.7852 5.4883l20.613 62.965c4.6992 14.359-3.2422 20.113-15.438 11.215l-53.516-39.059c-1.5156-1.1094-4.25-1.1094-5.7656 0zm-3.3047-4.5234c3.4883-2.5469 8.8906-2.543 12.375 0l53.512 39.059c7.8086 5.6992 9.8203 4.2383 6.8125-4.9492l-20.609-62.965c-1.3438-4.1016 0.32812-9.2383 3.8203-11.766l53.688-38.824c7.832-5.6641 7.0664-8.0312-2.6055-8.0117l-66.25 0.14453c-4.3164 0.011718-8.6836-3.1641-10.008-7.2695l-20.336-63.055c-2.9688-9.1992-5.4531-9.2031-8.4219 0l-20.336 63.055c-1.3242 4.1055-5.6953 7.2812-10.008 7.2695l-66.25-0.14453c-9.668-0.019531-10.438 2.3438-2.6055 8.0117l53.688 38.824c3.4961 2.5273 5.1641 7.6641 3.8203 11.766l-20.609 62.965c-3.0078 9.1836-0.99609 10.648 6.8125 4.9492z"/>
 </g>
</svg>
